<?xml version="1.0" encoding="UTF-8" standalone="no"?>
<!DOCTYPE svg PUBLIC "-//W3C//DTD SVG 1.1//EN" "http://www.w3.org/Graphics/SVG/1.1/DTD/svg11.dtd">
<svg width="100%" height="100%" viewBox="0 0 64 64" version="1.1" xmlns="http://www.w3.org/2000/svg" xmlns:xlink="http://www.w3.org/1999/xlink" xml:space="preserve" xmlns:serif="http://www.serif.com/" style="fill-rule:evenodd;clip-rule:evenodd;stroke-linejoin:round;stroke-miterlimit:2;">
    <g id="Mesa-de-trabajo1" serif:id="Mesa de trabajo1" transform="matrix(0.125,0,0,0.125,0,0)">
        <rect x="0" y="0" width="512" height="512" style="fill:none;"/>
        <g id="volumeLowIcon">
            <g id="loudspeaker" transform="matrix(1,0,0,1,28.1589,7.22343)">
                <path d="M115.246,152.122L166.99,26.113C169.335,20.402 175.392,17.147 181.449,18.342C187.507,19.537 191.873,24.85 191.873,31.024C191.873,142.819 191.873,369.181 191.873,480.976C191.873,487.15 187.507,492.463 181.449,493.658C175.392,494.853 169.335,491.598 166.99,485.887L115.246,359.878L101.992,359.878L101.992,397.548L14.955,397.548L14.955,114.452L101.992,114.452L101.992,152.122L115.246,152.122Z"/>
            </g>
            <g transform="matrix(4.89859e-16,8,-8,4.89859e-16,670.252,-65.0485)">
                <path d="M49.251,54.277C49.251,49.739 45.572,46.06 41.034,46.06C36.496,46.06 32.817,49.739 32.817,54.277L49.251,54.277Z"/>
            </g>
        </g>
    </g>
</svg>
